<svg width="29" height="28" viewBox="0 0 29 28" fill="none" xmlns="http://www.w3.org/2000/svg">
<path d="M0.507168 13.0752L7.12336 15.7687L9.68422 24.7517C9.84816 25.327 10.4931 25.5397 10.9211 25.1579L14.6091 21.8785C14.9958 21.535 15.5464 21.5179 15.9504 21.8377L22.6022 27.1053C23.0602 27.4684 23.709 27.1947 23.8239 26.591L28.6967 1.02512C28.8221 0.365744 28.228 -0.184319 27.6525 0.0585127L0.499415 11.4838C-0.170666 11.7657 -0.164827 12.8005 0.507168 13.0752ZM9.27155 14.3348L22.202 5.64825C22.4344 5.49259 22.6736 5.83533 22.474 6.03723L11.8026 16.8569C11.4275 17.2378 11.1855 17.7474 11.1169 18.3006L10.7534 21.239C10.7053 21.6313 10.2001 21.6704 10.1008 21.2905L8.7027 15.9324C8.54255 15.3213 8.77595 14.6685 9.27155 14.3348Z" fill="black"/>
</svg>
