<svg width="43" height="28" viewBox="0 0 43 28" fill="none" xmlns="http://www.w3.org/2000/svg">
<path d="M23.5033 27.2565C24.5909 27.2565 25.0354 26.4658 25.023 25.4744C24.9675 21.7405 26.2979 19.7305 28.6997 22.3502C31.3568 25.2484 31.9068 27.2565 35.1336 27.2565H40.8477C42.2907 27.2565 42.8585 26.7501 42.8585 25.9554C42.8585 24.2747 40.321 21.3082 38.171 19.1306C35.1604 16.0825 35.0192 16.0104 37.612 12.3408C40.8281 7.78511 45.0352 1.94773 41.3138 1.94773H34.2049C32.8264 1.94773 32.7264 2.79507 32.2353 4.0572C30.4585 8.6284 27.0819 14.5495 25.7997 13.6439C24.4586 12.6992 25.0729 8.95759 25.1748 3.39685C25.2015 1.9282 25.1944 0.921304 23.1373 0.399291C22.014 0.116864 20.9212 0 19.9069 0C15.8481 0 13.048 1.85621 14.6391 2.17949C17.4445 2.7502 17.1749 9.37051 16.5212 12.2298C15.382 17.2082 11.0999 8.28757 9.31596 3.84477C8.88561 2.77752 8.75347 1.94773 7.21777 1.94773H1.40535C0.52678 1.94773 0 2.25937 0 2.95276C0 4.12524 5.28565 16.0415 10.332 21.9821C15.2534 27.7765 20.1177 27.2565 23.5033 27.2565Z" fill="black"/>
</svg>
